<svg width="25" height="18" viewBox="0 0 25 18" fill="none" xmlns="http://www.w3.org/2000/svg">
<path d="M22.9129 5.31843H20.3689V1.95493C20.3689 0.876983 19.4327 0 18.2818 0H2.08711C0.936279 4.57358e-05 0 0.877029 0 1.95498V10.7265C0 11.8044 0.936279 12.6814 2.08711 12.6814H4.63115V16.0451C4.63115 17.123 5.56743 18 6.71826 18H22.9129C24.0637 18 25 17.123 25 16.0451V7.27336C25 6.19541 24.0637 5.31843 22.9129 5.31843ZM1.19263 1.95498C1.19263 1.493 1.5939 1.11714 2.08711 1.11714H18.2818C18.775 1.11714 19.1763 1.493 19.1763 1.95498V2.73482H1.19263V1.95498ZM4.63115 7.27336V11.5642H2.08711C1.5939 11.5642 1.19263 11.1884 1.19263 10.7264V6.439H4.8313C4.70312 6.6922 4.63115 6.97507 4.63115 7.27336ZM1.19263 5.32191V3.85196H19.1763V5.31843H6.71826C6.67793 5.31843 6.63799 5.31976 6.59824 5.32191H1.19263ZM22.9129 16.8829H6.71826C6.22505 16.8829 5.82378 16.507 5.82378 16.0451V7.27336C5.82378 6.83443 6.18618 6.47394 6.64526 6.439H19.7725C19.7945 6.439 19.8161 6.43772 19.8375 6.43553H22.9128C23.4061 6.43553 23.8073 6.81138 23.8073 7.27336V16.0451H23.8074C23.8074 16.507 23.4061 16.8829 22.9129 16.8829Z" fill="#657D95"/>
<path d="M16.6119 8.96673C15.9335 8.96673 15.3098 9.18841 14.8177 9.55782C14.3131 9.17711 13.6844 8.96641 13.0194 8.96641C11.4342 8.96641 10.1445 10.1744 10.1445 11.6592C10.1445 13.144 11.4342 14.352 13.0194 14.352C13.6845 14.352 14.3131 14.1413 14.8177 13.7607C15.3098 14.1301 15.9335 14.3518 16.6119 14.3518C18.1969 14.3518 19.4864 13.1439 19.4864 11.6592C19.4864 10.1746 18.1969 8.96673 16.6119 8.96673ZM14.0602 12.8968C13.7668 13.1144 13.4034 13.2348 13.0193 13.2348C12.0917 13.2349 11.3371 12.528 11.3371 11.6592C11.3371 10.7904 12.0917 10.0835 13.0193 10.0835C13.4034 10.0835 13.7667 10.2041 14.0602 10.4216C13.8543 10.7925 13.7373 11.2131 13.7373 11.6591C13.7373 12.1052 13.8544 12.5259 14.0602 12.8968ZM16.6119 13.2347C15.6845 13.2347 14.93 12.5279 14.93 11.6592C14.93 10.7905 15.6845 10.0838 16.6119 10.0838C17.5393 10.0838 18.2938 10.7906 18.2938 11.6592C18.2938 12.5279 17.5393 13.2347 16.6119 13.2347Z" fill="#657D95"/>
</svg>
