<svg width="25" height="24" viewBox="0 0 25 24" fill="none" xmlns="http://www.w3.org/2000/svg">
<path d="M22.2801 13.3048H2.71484C1.21964 13.3048 0 14.5251 0 16.0325V21.2724C0 22.7746 1.21453 24 2.71484 24H22.2852C23.7804 24 25 22.7797 25 21.2724V16.0273C24.9949 14.5251 23.7753 13.3048 22.2801 13.3048ZM23.7446 21.2673C23.7446 22.0773 23.0863 22.7387 22.2801 22.7387H2.71484C1.90855 22.7387 1.25025 22.0773 1.25025 21.2673V16.0273C1.25025 15.2173 1.90855 14.5559 2.71484 14.5559H22.2852C23.0914 14.5559 23.7497 15.2173 23.7497 16.0273V21.2673H23.7446Z" fill="white"/>
<path d="M17.0545 7.19334C17.2484 7.19334 17.4423 7.10105 17.5648 6.92673C17.7638 6.64473 17.6975 6.24995 17.4168 6.04999C15.9982 5.03995 14.3244 4.50673 12.574 4.50673C10.8236 4.50673 9.14472 5.03995 7.73117 6.04999C7.4505 6.24995 7.38416 6.64473 7.58318 6.92673C7.7822 7.20872 8.17514 7.27537 8.45581 7.07541C9.66013 6.21406 11.0839 5.76287 12.5791 5.76287C14.0692 5.76287 15.4981 6.21918 16.7024 7.07541C16.8044 7.15744 16.932 7.19334 17.0545 7.19334Z" fill="white"/>
<path d="M12.574 8.98782C11.8085 8.98782 11.0737 9.22367 10.4562 9.6646C10.1755 9.86456 10.1092 10.2593 10.3082 10.5413C10.5072 10.8233 10.9002 10.89 11.1809 10.69C11.5891 10.3978 12.0688 10.244 12.574 10.244C13.0792 10.244 13.564 10.3978 13.9671 10.69C14.0794 10.7669 14.2019 10.8079 14.3295 10.8079C14.5234 10.8079 14.7173 10.7157 14.8398 10.5413C15.0388 10.2593 14.9724 9.86456 14.6918 9.6646C14.0743 9.21854 13.3395 8.98782 12.574 8.98782Z" fill="white"/>
<path d="M20.2286 3.69665C20.4225 3.69665 20.6165 3.60436 20.7389 3.43004C20.9379 3.14805 20.8716 2.75326 20.5909 2.5533C18.2486 0.88699 15.4725 0 12.574 0C9.67544 0 6.89937 0.881863 4.55705 2.5533C4.27638 2.75326 4.21004 3.14805 4.40906 3.43004C4.60808 3.71203 5.00102 3.77868 5.28169 3.57872C7.41478 2.0611 9.9357 1.25614 12.574 1.25614C15.2123 1.25614 17.7332 2.0611 19.8663 3.57872C19.9786 3.66076 20.101 3.69665 20.2286 3.69665Z" fill="white"/>
<path d="M19.4836 18.0218H12.3239C11.9769 18.0218 11.6963 18.3038 11.6963 18.6524C11.6963 19.0011 11.9769 19.2831 12.3239 19.2831H19.4836C19.8306 19.2831 20.1112 19.0011 20.1112 18.6524C20.1061 18.2987 19.8255 18.0218 19.4836 18.0218Z" fill="white"/>
<path d="M6.47581 19.401C6.89011 19.401 7.22596 19.0635 7.22596 18.6473C7.22596 18.231 6.89011 17.8936 6.47581 17.8936C6.06151 17.8936 5.72566 18.231 5.72566 18.6473C5.72566 19.0635 6.06151 19.401 6.47581 19.401Z" fill="white"/>
</svg>
