<svg width="16" height="17" viewBox="0 0 16 17" fill="none" xmlns="http://www.w3.org/2000/svg">
<path fill-rule="evenodd" clip-rule="evenodd" d="M3.8929 12.2775C3.6089 11.9185 3.2639 11.1845 2.6499 10.2935C2.3019 9.78949 1.4389 8.84049 1.1819 8.35849C0.958897 7.93249 0.982897 7.74149 1.0359 7.38849C1.1299 6.76049 1.7739 6.27149 2.4609 6.33749C2.9799 6.38649 3.4199 6.72949 3.8159 7.05349C4.0549 7.24849 4.3489 7.62749 4.5259 7.84149C4.6889 8.03749 4.7289 8.11849 4.9029 8.35049C5.1329 8.65749 5.2049 8.80949 5.1169 8.47149C5.0459 7.97549 4.9299 7.12849 4.7619 6.37949C4.6339 5.81149 4.6029 5.72249 4.4809 5.28649C4.3519 4.82249 4.2859 4.49749 4.1649 4.00549C4.0809 3.65749 3.9299 2.94649 3.8889 2.54649C3.8319 1.99949 3.8019 1.10749 4.1529 0.697494C4.4279 0.376494 5.0589 0.279494 5.4499 0.477494C5.9619 0.736494 6.2529 1.48049 6.3859 1.77749C6.6249 2.31149 6.7729 2.92849 6.9019 3.73849C7.0659 4.76949 7.3679 6.20049 7.3779 6.50149C7.4019 6.13249 7.3099 5.35549 7.3739 5.00149C7.4319 4.68049 7.7019 4.30749 8.0399 4.20649C8.3259 4.12149 8.6609 4.09049 8.9559 4.15149C9.2689 4.21549 9.5989 4.43949 9.7219 4.65049C10.0839 5.27449 10.0909 6.54949 10.1059 6.48149C10.1919 6.10549 10.1769 5.25249 10.3899 4.89749C10.5299 4.66349 10.8869 4.45249 11.0769 4.41849C11.3709 4.36649 11.7319 4.35049 12.0409 4.41049C12.2899 4.45949 12.6269 4.75549 12.7179 4.89749C12.9359 5.24149 13.0599 6.21449 13.0969 6.55549C13.1119 6.69649 13.1709 6.16349 13.3899 5.81949C13.7959 5.18049 15.2329 5.05649 15.2879 6.45849C15.3129 7.11249 15.3079 7.08249 15.3079 7.52249C15.3079 8.03949 15.2959 8.35049 15.2679 8.72449C15.2369 9.12449 15.1509 10.0285 15.0259 10.4665C14.9399 10.7675 14.6549 11.4445 14.3739 11.8505C14.3739 11.8505 13.2999 13.1005 13.1829 13.6635C13.0649 14.2255 13.1039 14.2295 13.0809 14.6285C13.0579 15.0265 13.2019 15.5505 13.2019 15.5505C13.2019 15.5505 12.3999 15.6545 11.9679 15.5855C11.5769 15.5225 11.0929 14.7445 10.9679 14.5065C10.7959 14.1785 10.4289 14.2415 10.2859 14.4835C10.0609 14.8665 9.5769 15.5535 9.2349 15.5965C8.5669 15.6805 7.1809 15.6275 6.0959 15.6165C6.0959 15.6165 6.2809 14.6055 5.8689 14.2585C5.5639 13.9995 5.0389 13.4745 4.7249 13.1985L3.8929 12.2775Z" fill="white"/>
<path fill-rule="evenodd" clip-rule="evenodd" d="M3.8929 12.2775C3.6089 11.9185 3.2639 11.1845 2.6499 10.2935C2.3019 9.78949 1.4389 8.84049 1.1819 8.35849C0.958897 7.93249 0.982897 7.74149 1.0359 7.38849C1.1299 6.76049 1.7739 6.27149 2.4609 6.33749C2.9799 6.38649 3.4199 6.72949 3.8159 7.05349C4.0549 7.24849 4.3489 7.62749 4.5259 7.84149C4.6889 8.03749 4.7289 8.11849 4.9029 8.35049C5.1329 8.65749 5.2049 8.80949 5.1169 8.47149C5.0459 7.97549 4.9299 7.12849 4.7619 6.37949C4.6339 5.81149 4.6029 5.72249 4.4809 5.28649C4.3519 4.82249 4.2859 4.49749 4.1649 4.00549C4.0809 3.65749 3.9299 2.94649 3.8889 2.54649C3.8319 1.99949 3.8019 1.10749 4.1529 0.697494C4.4279 0.376494 5.0589 0.279494 5.4499 0.477494C5.9619 0.736494 6.2529 1.48049 6.3859 1.77749C6.6249 2.31149 6.7729 2.92849 6.9019 3.73849C7.0659 4.76949 7.3679 6.20049 7.3779 6.50149C7.4019 6.13249 7.3099 5.35549 7.3739 5.00149C7.4319 4.68049 7.7019 4.30749 8.0399 4.20649C8.3259 4.12149 8.6609 4.09049 8.9559 4.15149C9.2689 4.21549 9.5989 4.43949 9.7219 4.65049C10.0839 5.27449 10.0909 6.54949 10.1059 6.48149C10.1919 6.10549 10.1769 5.25249 10.3899 4.89749C10.5299 4.66349 10.8869 4.45249 11.0769 4.41849C11.3709 4.36649 11.7319 4.35049 12.0409 4.41049C12.2899 4.45949 12.6269 4.75549 12.7179 4.89749C12.9359 5.24149 13.0599 6.21449 13.0969 6.55549C13.1119 6.69649 13.1709 6.16349 13.3899 5.81949C13.7959 5.18049 15.2329 5.05649 15.2879 6.45849C15.3129 7.11249 15.3079 7.08249 15.3079 7.52249C15.3079 8.03949 15.2959 8.35049 15.2679 8.72449C15.2369 9.12449 15.1509 10.0285 15.0259 10.4665C14.9399 10.7675 14.6549 11.4445 14.3739 11.8505C14.3739 11.8505 13.2999 13.1005 13.1829 13.6635C13.0649 14.2255 13.1039 14.2295 13.0809 14.6285C13.0579 15.0265 13.2019 15.5505 13.2019 15.5505C13.2019 15.5505 12.3999 15.6545 11.9679 15.5855C11.5769 15.5225 11.0929 14.7445 10.9679 14.5065C10.7959 14.1785 10.4289 14.2415 10.2859 14.4835C10.0609 14.8665 9.5769 15.5535 9.2349 15.5965C8.5669 15.6805 7.1809 15.6275 6.0959 15.6165C6.0959 15.6165 6.2809 14.6055 5.8689 14.2585C5.5639 13.9995 5.0389 13.4745 4.7249 13.1985L3.8929 12.2775V12.2775Z" stroke="black" stroke-width="0.75" stroke-linecap="round" stroke-linejoin="round"/>
<path d="M12.1279 12.632V9.173" stroke="black" stroke-width="0.75" stroke-linecap="round"/>
<path d="M10.1122 12.6437L10.0962 9.17068" stroke="black" stroke-width="0.75" stroke-linecap="round"/>
<path d="M8.11621 9.20229L8.13721 12.6283" stroke="black" stroke-width="0.75" stroke-linecap="round"/>
</svg>
