<svg width="25" height="20" viewBox="0 0 25 20" fill="none" xmlns="http://www.w3.org/2000/svg">
<path d="M13.2299 12.1946C12.7142 11.4959 11.8859 11.069 10.9978 11.0367C10.979 11.0346 10.96 11.0335 10.9407 11.0335C9.81102 11.0335 8.87757 10.216 8.75028 9.16646C9.07552 8.93964 9.37562 8.65179 9.64159 8.307C10.1794 7.60969 10.5286 6.73839 10.658 5.79617C10.6976 5.75488 10.731 5.70681 10.755 5.6521C10.9828 5.13281 11.0982 4.57839 11.0982 4.00425C11.0982 1.79627 9.35497 0 7.21228 0C6.65813 0 6.12048 0.120543 5.61228 0.358403C5.42229 0.37374 5.2361 0.406471 5.05734 0.456034C3.26603 0.951626 2.25357 3.02573 2.8005 5.0795C2.85553 5.28613 2.9255 5.48934 3.00861 5.68343C3.03126 5.73646 3.063 5.78303 3.1004 5.82371C3.3067 7.27424 4.02365 8.48112 5.00417 9.16384C4.87814 10.2147 3.94401 11.0336 2.81339 11.0336C2.79601 11.0336 2.77882 11.0345 2.76183 11.0361C1.22974 11.0879 0 12.2968 0 13.7763V16.7286C0 17.0041 0.233155 17.2274 0.520803 17.2274H9.72255C10.0101 17.2274 10.2434 17.0041 10.2434 16.7286C10.2434 16.4532 10.0101 16.2299 9.72255 16.2299H1.04156V13.7763C1.04156 12.8138 1.85924 12.0308 2.86432 12.0308C2.8817 12.0308 2.89889 12.0299 2.91588 12.0283C3.29103 12.0171 3.65026 11.9448 3.98317 11.8212L6.44885 15.2291C6.54612 15.3635 6.70608 15.4438 6.87693 15.4438C7.04778 15.4438 7.20774 15.3636 7.30501 15.2291L9.77074 11.8212C10.1037 11.9448 10.4629 12.0171 10.838 12.0283C10.855 12.0299 10.8722 12.0308 10.8896 12.0308C11.4807 12.0308 12.0376 12.3072 12.3793 12.7703C12.4808 12.9077 12.6417 12.9811 12.8051 12.9811C12.909 12.9811 13.0139 12.9514 13.1052 12.8896C13.3401 12.7308 13.3959 12.4195 13.2299 12.1946ZM5.34631 1.41407C5.48293 1.37629 5.62741 1.35384 5.7758 1.34744C5.85227 1.34416 5.92688 1.3248 5.99465 1.29072C6.38167 1.09602 6.79124 0.997262 7.21209 0.997262C8.74872 0.997262 10.0038 2.29219 10.0541 3.90386C9.74091 3.67708 9.35131 3.54227 8.92933 3.54227H6.20574C6.07009 3.54227 5.94128 3.5015 5.83342 3.4244C5.74109 3.35842 5.6698 3.26986 5.62717 3.16807C5.52878 2.93362 5.28537 2.78717 5.02253 2.80307C4.75808 2.8193 4.53557 2.99529 4.46891 3.24078C4.33605 3.72954 4.088 4.18473 3.75075 4.57128C3.48063 3.12524 4.16081 1.74208 5.34631 1.41407ZM4.12497 5.63766C4.57985 5.23834 4.94797 4.75439 5.205 4.21994C5.20676 4.2212 5.20857 4.22247 5.21037 4.22373C5.49968 4.4305 5.84382 4.53972 6.20569 4.53972H8.92928C9.25643 4.53972 9.539 4.72301 9.67313 4.98753C9.66967 6.02355 9.36141 6.99131 8.8037 7.71424C8.27777 8.39598 7.59349 8.77145 6.87683 8.77145C6.2136 8.77145 5.56789 8.44334 5.05866 7.84764C4.56462 7.26976 4.23771 6.49188 4.12497 5.63766ZM6.87688 14.0694L4.88386 11.3148C5.41853 10.8899 5.80828 10.304 5.97307 9.63578C6.26326 9.72275 6.5659 9.76894 6.87683 9.76894C7.18611 9.76894 7.48899 9.72401 7.78113 9.63723C7.94613 10.3048 8.33573 10.8902 8.87001 11.3147L6.87688 14.0694Z" fill="white"/>
<path d="M22.2384 13.8087C22.2214 13.8071 22.2042 13.8062 22.1869 13.8062C21.0556 13.8062 20.1212 12.9865 19.9959 11.9348C20.6337 11.49 21.1596 10.8232 21.5062 10.0121C21.5558 10.1676 21.6828 10.2931 21.8499 10.3427C21.9007 10.3577 21.9526 10.3651 22.004 10.3651C22.1619 10.3651 22.3146 10.2962 22.415 10.1727C23.1416 9.27906 23.5193 8.11599 23.4787 6.8977C23.4388 5.70256 23 4.58059 22.2432 3.73856C21.4683 2.87643 20.4454 2.39665 19.3617 2.38673C19.3043 2.38449 19.1614 2.38921 19.1383 2.39057C18.5815 2.14873 17.9932 2.03577 17.3874 2.05419C16.1361 2.09248 14.9852 2.68968 14.1467 3.73576C13.3318 4.75233 12.9086 6.07826 12.9551 7.46941C12.9629 7.70512 12.9824 7.92218 13.0138 8.12885C13.0986 8.7217 13.2692 9.28948 13.5207 9.8164C13.6007 9.98413 13.7709 10.0959 13.9631 10.1069C14.1546 10.118 14.3381 10.0266 14.4386 9.86924C14.4805 9.80364 14.5344 9.72186 14.5938 9.64171C14.826 10.3171 15.1809 10.924 15.6316 11.4031C15.8238 11.6074 16.0314 11.7852 16.2501 11.9368C16.1238 12.9875 15.1898 13.8061 14.0593 13.8061C14.0419 13.8061 14.0248 13.807 14.0078 13.8086C12.4758 13.8606 11.2461 15.0695 11.2461 16.549V19.5013C11.2461 19.7767 11.4793 20 11.7669 20H24.4792C24.7668 20 25 19.7767 25 19.5013V16.549C25.0001 15.0696 23.7704 13.8607 22.2384 13.8087ZM14.1657 8.57969C14.1143 8.38761 14.0741 8.19061 14.0452 7.98932C14.0189 7.81594 14.0028 7.63545 13.9962 7.43762C13.9575 6.27628 14.3044 5.17727 14.973 4.34315C15.6179 3.53853 16.4872 3.07974 17.4207 3.05117C17.4519 3.05019 18.1232 3.014 18.8084 3.34467C18.885 3.38161 18.9733 3.39877 19.0593 3.39643C19.0692 3.39615 19.3365 3.38404 19.3443 3.38414C20.1265 3.38909 20.8756 3.74609 21.4538 4.3893C22.0559 5.05925 22.4053 5.96141 22.4376 6.92964C22.4552 7.45553 22.378 7.96674 22.2146 8.43708C22.1654 8.31149 22.1105 8.18781 22.0501 8.06619C21.5473 7.04172 20.7009 6.24818 19.6667 5.8317C19.5357 5.77896 19.388 5.77975 19.2576 5.8339C19.1273 5.888 19.0257 5.99077 18.9764 6.11842C18.9071 6.29779 18.8231 6.47253 18.7266 6.63772C18.454 7.10465 17.9043 7.38244 17.293 7.36196C17.2012 7.35897 17.1081 7.35883 17.0163 7.36164C16.566 7.37543 16.1268 7.45763 15.7087 7.60674C15.2957 7.756 14.6017 8.13048 14.1657 8.57969ZM15.4469 8.85112C15.6443 8.72445 15.8545 8.62014 16.0745 8.54051C16.3842 8.43007 16.7123 8.36881 17.0496 8.35848C17.1184 8.35633 17.1882 8.35642 17.2569 8.35871C18.2625 8.39168 19.1718 7.91895 19.6357 7.12448C19.6642 7.07562 19.692 7.026 19.7188 6.97593C20.1938 7.25615 20.5998 7.65112 20.9051 8.13048C20.9024 8.14526 20.9002 8.16008 20.8989 8.17533C20.819 9.12157 20.4782 9.98997 19.939 10.6206C19.4298 11.2163 18.7841 11.5444 18.1209 11.5444C16.8948 11.5443 15.8041 10.4282 15.4469 8.85112ZM17.2195 12.4077C17.5126 12.4954 17.8149 12.5417 18.1209 12.5417C18.4326 12.5417 18.736 12.4952 19.0269 12.4078C19.2361 13.257 19.8096 13.9726 20.5805 14.3947C20.2798 15.4354 19.2803 16.1836 18.1233 16.1836C16.9661 16.1836 15.9667 15.4353 15.666 14.3947C16.4369 13.9726 17.0104 13.257 17.2195 12.4077ZM23.9585 19.0027H12.2878V16.549C12.2878 15.5866 13.1055 14.8036 14.1106 14.8036C14.128 14.8036 14.1452 14.8027 14.1622 14.8011C14.3415 14.7957 14.5173 14.7768 14.6883 14.7445C15.1407 16.1668 16.5249 17.1811 18.1232 17.1811C19.7216 17.1811 21.1057 16.1668 21.5582 14.7446C21.7291 14.7769 21.9049 14.7957 22.0842 14.8011C22.1012 14.8027 22.1184 14.8036 22.1358 14.8036C23.1409 14.8036 23.9585 15.5866 23.9585 16.549V19.0027Z" fill="white"/>
</svg>
