<svg width="24" height="24" viewBox="0 0 24 24" fill="none" xmlns="http://www.w3.org/2000/svg">
<path d="M10.8551 15.1879C11.0004 15.1582 11.1169 15.1019 11.2098 15.0298C10.9864 14.8564 10.7723 14.625 10.5939 14.4049C10.3595 14.1163 10.1769 13.8518 9.92551 13.5754C9.91449 13.5626 9.90853 13.5492 9.90228 13.5358C9.7057 13.5566 9.51657 13.5662 9.4013 13.5474C9.35186 13.5393 9.04656 13.4205 9.19072 13.4923C9.17106 13.4828 9.15975 13.4783 9.1517 13.4765C9.14872 13.4708 9.14694 13.4667 9.14187 13.458C9.1383 13.4533 9.1377 13.4515 9.13562 13.447C9.13681 13.355 9.1523 13.1846 9.14366 13.2025C9.20472 12.885 9.29556 12.717 9.4567 12.4346C10.1105 11.2879 11.4285 10.2442 12.7849 10.3205C14.0856 10.3938 14.8874 11.9494 14.1124 12.8987C12.8441 14.452 12.1067 12.5946 11.1809 11.2581C10.71 11.3752 9.73578 12.6485 9.73578 12.6485C9.87607 12.9696 9.93951 13.0598 10.1245 13.3553C10.128 13.3588 10.1325 13.36 10.1361 13.3639C10.1361 13.3639 10.915 14.4552 11.4332 14.7397C11.6876 14.8794 11.8043 14.9631 12.0125 15.0462C13.0881 15.4757 14.1877 15.1602 15.0637 14.4689C17.101 12.8614 16.2143 9.80879 14.0445 8.84883C11.8294 7.86861 9.55529 9.32003 8.22897 11.0583C7.7119 11.7359 7.24637 12.6914 7.35925 13.5679C7.50192 14.6753 8.31862 15.2124 9.37271 15.33C9.86147 15.3851 10.3788 15.2844 10.8551 15.1879Z" fill="#657D95"/>
<path d="M16.6685 12.5173C16.6644 12.6406 16.6504 12.7424 16.6277 12.8327L21 12.8327L21 11.0456L16.5264 11.0456C16.6429 11.5427 16.6864 11.9877 16.6685 12.5173Z" fill="#657D95"/>
<path d="M3.0004 11.0456L3.0004 12.8327L7.02937 12.8327C7.24501 12.0794 7.92291 11.0456 7.92291 11.0456L3.0004 11.0456Z" fill="#657D95"/>
</svg>
